<svg width="120" height="25" viewBox="0 0 120 25" fill="none" xmlns="http://www.w3.org/2000/svg">
<g clip-path="url(#clip0_720_204888)">
<path d="M35.0744 8.67227V7.23193H27.4064V8.69313H33.0994L27.3014 16.1431V17.5835H35.1794V16.1223H29.2764L35.0744 8.67227Z" fill="#333333"/>
<path d="M44.1735 7.6594C43.4455 7.20744 42.5695 6.98096 41.5475 6.98096C40.5255 6.98096 39.6255 7.20744 38.8475 7.6594C38.0705 8.11137 37.4645 8.74114 37.0305 9.54773C36.5965 10.3543 36.3795 11.3079 36.3795 12.4065C36.3795 13.5052 36.6005 14.4409 37.0415 15.2554C37.4825 16.069 38.0885 16.7027 38.8585 17.1547C39.6285 17.6066 40.5105 17.8331 41.5055 17.8331C42.3315 17.8331 43.0565 17.6871 43.6795 17.3951C44.3025 17.103 44.8245 16.7067 45.2445 16.206C45.6645 15.7054 45.9655 15.1352 46.1475 14.4945H44.4035C44.1795 15.0647 43.8225 15.5177 43.3325 15.8514C42.8425 16.1852 42.2325 16.3521 41.5045 16.3521C40.9165 16.3521 40.3625 16.209 39.8445 15.9239C39.3265 15.6389 38.9065 15.2107 38.5845 14.6406C38.3005 14.1389 38.1495 13.5221 38.1155 12.8039H46.4205C46.4345 12.6092 46.4415 12.4324 46.4415 12.2715V11.8225C46.4415 10.9603 46.2455 10.1636 45.8535 9.4335C45.4615 8.7034 44.9005 8.11236 44.1725 7.6594H44.1735ZM38.1285 11.447C38.1825 10.8927 38.3295 10.4149 38.5755 10.0176C38.8905 9.50998 39.3075 9.12358 39.8255 8.85935C40.3435 8.59512 40.9035 8.46301 41.5065 8.46301C42.4025 8.46301 43.1485 8.72724 43.7435 9.25569C44.3385 9.78414 44.6575 10.5152 44.6995 11.447H38.1285Z" fill="#333333"/>
<path d="M50.2711 8.02594C49.9071 8.3597 49.6131 8.76399 49.3891 9.23582L49.2421 7.23227H47.6451V17.5828H49.4101V12.3658C49.4101 11.6844 49.4971 11.1132 49.6731 10.6543C49.8481 10.1954 50.0931 9.83381 50.4081 9.56958C50.7231 9.30536 51.0871 9.11464 51.5001 8.99544C51.9131 8.87723 52.3511 8.81763 52.8131 8.81763H53.2961V6.98096C52.6521 6.98096 52.0781 7.07135 51.5731 7.25214C51.0691 7.43292 50.6351 7.6902 50.2701 8.02396L50.2711 8.02594Z" fill="#333333"/>
<path d="M61.7731 7.64848C60.9881 7.20346 60.1061 6.98096 59.1261 6.98096C58.1461 6.98096 57.2601 7.20346 56.4681 7.64848C55.6771 8.09349 55.0501 8.72326 54.5881 9.5368C54.1261 10.3503 53.8951 11.3069 53.8951 12.4065C53.8951 13.5062 54.1221 14.4627 54.5781 15.2763C55.0331 16.0898 55.6531 16.7196 56.4371 17.1646C57.2211 17.6096 58.1041 17.8321 59.0841 17.8321C60.0641 17.8321 60.9501 17.6096 61.7421 17.1646C62.5331 16.7196 63.1601 16.0898 63.6221 15.2763C64.0841 14.4627 64.3151 13.5062 64.3151 12.4065C64.3151 11.3069 64.0871 10.3513 63.6321 9.5368C63.1771 8.72326 62.5571 8.09349 61.7731 7.64848ZM62.0251 14.576C61.7031 15.1601 61.2821 15.5981 60.7641 15.8902C60.2461 16.1822 59.6851 16.3282 59.0831 16.3282C58.4811 16.3282 57.9451 16.1822 57.4341 15.8902C56.9231 15.5981 56.5061 15.1601 56.1841 14.576C55.8621 13.9919 55.7011 13.2688 55.7011 12.4056C55.7011 11.5423 55.8621 10.8023 56.1841 10.2252C56.5061 9.64806 56.9301 9.21298 57.4551 8.92094C57.9801 8.6289 58.5371 8.48288 59.1251 8.48288C59.7131 8.48288 60.2661 8.6289 60.7851 8.92094C61.3031 9.21298 61.7201 9.64806 62.0351 10.2252C62.3501 10.8023 62.5081 11.5294 62.5081 12.4056C62.5081 13.2817 62.3471 13.9919 62.0251 14.576Z" fill="#333333"/>
<path d="M72.9703 7.47117C72.3683 7.14436 71.6673 6.98046 70.8693 6.98046C70.0713 6.98046 69.3953 7.15827 68.7583 7.51289C68.1213 7.86751 67.6273 8.36517 67.2773 9.00487V2.55615H65.5123V17.5813H67.2773V12.2183C67.2773 11.4117 67.4173 10.7333 67.6973 10.184C67.9773 9.63464 68.3623 9.21347 68.8523 8.92143C69.3423 8.62939 69.8883 8.48337 70.4913 8.48337C71.3593 8.48337 72.0143 8.75455 72.4553 9.29691C72.8963 9.83927 73.1173 10.6469 73.1173 11.7177V17.5813H74.8613V11.5299C74.8613 10.5008 74.6963 9.64855 74.3673 8.97309C74.0383 8.29861 73.5723 7.79797 72.9703 7.47017V7.47117Z" fill="#333333"/>
<path d="M83.8571 7.6594C83.1291 7.20744 82.2531 6.98096 81.2311 6.98096C80.2091 6.98096 79.3091 7.20744 78.5311 7.6594C77.7541 8.11137 77.1481 8.74114 76.7141 9.54773C76.2801 10.3543 76.0631 11.3079 76.0631 12.4065C76.0631 13.5052 76.2841 14.4409 76.7251 15.2554C77.1661 16.069 77.7721 16.7027 78.5421 17.1547C79.3121 17.6066 80.1941 17.8331 81.1891 17.8331C82.0151 17.8331 82.7401 17.6871 83.3631 17.3951C83.9861 17.103 84.5081 16.7067 84.9281 16.206C85.3481 15.7054 85.6491 15.1352 85.8311 14.4945H84.0871C83.8631 15.0647 83.5061 15.5177 83.0161 15.8514C82.5261 16.1852 81.9161 16.3521 81.1881 16.3521C80.6001 16.3521 80.0461 16.209 79.5281 15.9239C79.0101 15.6389 78.5901 15.2107 78.2681 14.6406C77.9841 14.1389 77.8331 13.5221 77.7991 12.8039H86.1041C86.1181 12.6092 86.1251 12.4324 86.1251 12.2715V11.8225C86.1251 10.9603 85.9291 10.1636 85.5371 9.4335C85.1451 8.7034 84.5841 8.11236 83.8561 7.6594H83.8571ZM77.8111 11.447C77.8651 10.8927 78.0121 10.4149 78.2581 10.0176C78.5731 9.50998 78.9901 9.12358 79.5081 8.85935C80.0261 8.59512 80.5861 8.46301 81.1891 8.46301C82.0851 8.46301 82.8311 8.72724 83.4261 9.25569C84.0211 9.78414 84.3401 10.5152 84.3821 11.447H77.8111Z" fill="#333333"/>
<path d="M88.5438 2.55615C88.1938 2.55615 87.9028 2.66343 87.6718 2.87899C87.4408 3.09553 87.3248 3.37665 87.3248 3.72431C87.3248 4.07198 87.4398 4.36104 87.6718 4.5905C87.9028 4.81996 88.1938 4.93519 88.5438 4.93519C88.8938 4.93519 89.1668 4.82095 89.4048 4.5905C89.6428 4.36104 89.7618 4.07198 89.7618 3.72431C89.7618 3.37665 89.6428 3.09454 89.4048 2.87899C89.1668 2.66343 88.8798 2.55615 88.5438 2.55615Z" fill="#333333"/>
<path d="M89.4258 7.23193H87.6608V17.5825H89.4258V7.23193Z" fill="#333333"/>
<path d="M95.7525 6.98096C94.8705 6.98096 94.1205 7.14784 93.5045 7.4816C92.8885 7.81536 92.4195 8.25739 92.0965 8.8067C91.7745 9.35602 91.6135 9.97188 91.6135 10.6533C91.6135 11.3347 91.7745 11.9546 92.0965 12.5108C92.2915 12.8476 92.5475 13.1376 92.8495 13.3899L91.0665 15.1611V15.6408C91.2625 15.8216 91.4835 15.9955 91.7285 16.1623C91.9305 16.3004 92.1745 16.4256 92.4575 16.5388C92.2215 16.6968 92.0205 16.8636 91.8545 17.0385C91.5255 17.3861 91.2945 17.7378 91.1615 18.0924C91.0285 18.447 90.9615 18.7778 90.9615 19.0837C90.9615 19.8208 91.1645 20.4406 91.5705 20.9413C91.9765 21.4419 92.5435 21.8144 93.2725 22.0578C94.0005 22.3011 94.8345 22.4233 95.7725 22.4233C96.8365 22.4233 97.7085 22.2495 98.3885 21.9018C99.0675 21.5542 99.5715 21.1091 99.9015 20.5658C100.231 20.0234 100.396 19.4523 100.396 18.8543C100.396 18.2563 100.266 17.7586 100.007 17.3206C99.7475 16.8825 99.3305 16.5309 98.7565 16.2666C98.1825 16.0024 97.4255 15.8355 96.4875 15.766C95.7875 15.7104 95.2275 15.6547 94.8065 15.5991C94.3865 15.5435 94.0575 15.4809 93.8195 15.4114C93.5815 15.3418 93.3925 15.2624 93.2525 15.172C93.2025 15.1402 93.1475 15.0995 93.0955 15.0647L94.1465 14.0952C94.6225 14.2452 95.1545 14.3267 95.7525 14.3267C96.6345 14.3267 97.3835 14.1628 98.0005 13.836C98.6165 13.5091 99.0855 13.0671 99.4085 12.5108C99.7305 11.9546 99.8915 11.3357 99.8915 10.6533C99.8915 9.97089 99.7305 9.35602 99.4085 8.8067C99.3725 8.74512 99.3275 8.69048 99.2885 8.63188L101.237 8.54645V7.23227H97.4075C96.9205 7.06837 96.3715 6.98195 95.7535 6.98195L95.7525 6.98096ZM96.0885 17.1855C97.0825 17.2411 97.7585 17.4328 98.1155 17.7596C98.4725 18.0864 98.6515 18.4718 98.6515 18.9178C98.6515 19.335 98.5325 19.6966 98.2945 20.0026C98.0565 20.3085 97.7235 20.5489 97.2965 20.7227C96.8695 20.8966 96.3615 20.984 95.7735 20.984C95.1855 20.984 94.6565 20.9075 94.1875 20.7545C93.7185 20.6015 93.3505 20.3721 93.0845 20.0661C92.8185 19.7602 92.6855 19.3778 92.6855 18.9178C92.6855 18.598 92.7975 18.2434 93.0215 17.854C93.2075 17.5302 93.5675 17.2351 94.0935 16.9679C94.6345 17.0593 95.2965 17.1328 96.0885 17.1865V17.1855ZM97.5275 12.3132C97.0865 12.6956 96.4945 12.8873 95.7525 12.8873C95.0105 12.8873 94.4145 12.6966 93.9665 12.3132C93.5185 11.9307 93.2945 11.3775 93.2945 10.6543C93.2945 9.93116 93.5185 9.39873 93.9665 9.0163C94.4145 8.63386 95.0095 8.44215 95.7525 8.44215C96.4955 8.44215 97.0865 8.63386 97.5275 9.0163C97.9685 9.39873 98.1895 9.94506 98.1895 10.6543C98.1895 11.3635 97.9685 11.9307 97.5275 12.3132Z" fill="#333333"/>
<path d="M109.892 7.47117C109.29 7.14436 108.589 6.98046 107.791 6.98046C106.993 6.98046 106.317 7.15827 105.68 7.51289C105.043 7.86751 104.549 8.36517 104.199 9.00487V2.55615H102.434V17.5813H104.199V12.2183C104.199 11.4117 104.339 10.7333 104.619 10.184C104.899 9.63464 105.284 9.21347 105.774 8.92143C106.264 8.62939 106.81 8.48337 107.413 8.48337C108.281 8.48337 108.936 8.75455 109.377 9.29691C109.818 9.83927 110.039 10.6469 110.039 11.7177V17.5813H111.783V11.5299C111.783 10.5008 111.618 9.64855 111.289 8.97309C110.96 8.29861 110.494 7.79797 109.892 7.47017V7.47117Z" fill="#333333"/>
<path d="M119.624 8.71099V7.22894H116.557V4.74561H115.023L114.792 7.22894H112.985V8.71099H114.792V14.4078C114.792 15.2004 114.914 15.8302 115.16 16.2961C115.405 16.762 115.759 17.0927 116.221 17.2874C116.683 17.4821 117.229 17.5795 117.86 17.5795H119.457V16.0766H118.365C117.693 16.0766 117.223 15.9623 116.957 15.7319C116.691 15.5024 116.558 15.0604 116.558 14.4068V8.71H119.625L119.624 8.71099Z" fill="#333333"/>
<path d="M12.6989 1.1869L2.40722 0.500488L1.72725 10.8897L12.019 11.5762L12.6989 1.1869Z" fill="#FF4852"/>
<path d="M11.7568 15.2447L13.8947 5.05877L23.985 7.21696L11.7568 15.2447Z" fill="#FF4852"/>
<path d="M16.6351 24.5005C19.483 24.5005 21.7917 22.1699 21.7917 19.295C21.7917 16.4201 19.483 14.0896 16.6351 14.0896C13.7872 14.0896 11.4785 16.4201 11.4785 19.295C11.4785 22.1699 13.7872 24.5005 16.6351 24.5005Z" fill="#FF4852"/>
<path d="M12.0213 11.5733C6.34069 11.1553 1.3991 15.4657 0.984985 21.2002L11.2714 21.9572L12.0213 11.5733Z" fill="#FF4852"/>
</g>
<defs>
<clipPath id="clip0_720_204888">
<rect width="119.2" height="24" fill="white" transform="translate(0.484985 0.500488)"/>
</clipPath>
</defs>
</svg>
